<svg width="64" height="64" viewBox="0 0 64 64" fill="none" xmlns="http://www.w3.org/2000/svg">
<path d="M31.4342 5.33325C36.9564 5.33325 41.2281 10.1743 40.5443 15.6524L40.2011 18.3927C39.6473 22.8152 35.8904 26.1327 31.4342 26.1327C26.9779 26.1327 23.2184 22.8152 22.6672 18.3927L22.324 15.6524C21.6402 10.1717 25.9119 5.33325 31.4342 5.33325Z" stroke="#FF3B0E" stroke-width="2" stroke-linecap="round" stroke-linejoin="round"/>
<path d="M16.1023 35.7785C26.3226 33.319 36.5456 33.319 46.7659 35.7785C48.5521 36.2075 49.943 37.6166 50.4474 39.3846L53.271 49.2722C54.1237 52.2569 52.1868 55.3326 49.1267 55.8474C37.3308 57.8285 25.5349 57.8285 13.739 55.8474C10.6762 55.3326 8.74188 52.2569 9.59466 49.2722L12.4182 39.3846C12.9226 37.6166 14.3161 36.2101 16.1023 35.7785Z" stroke="#FF3B0E" stroke-width="2" stroke-linecap="round" stroke-linejoin="round"/>
</svg>
