<svg width="64" height="64" viewBox="0 0 64 64" fill="none" xmlns="http://www.w3.org/2000/svg">
<path d="M37.3683 35.848C34.8267 35.5347 32.0233 35.333 29 35.333C26.6033 35.333 23.8167 35.4597 20.7317 35.8347C16.7133 36.3247 13.3933 39.2247 12.3283 43.1313C12.3283 43.1313 11.2098 47.2333 10.1638 51.0677C9.54084 53.3513 11.0255 55.6791 13.3726 55.9852C18.0138 56.5906 23.257 56.9997 29 56.9997C34.705 56.9997 41.4767 56.5963 49 55.333" stroke="#FF3B0E" stroke-width="2" stroke-linecap="round" stroke-linejoin="round"/>
<path d="M49 35.333V48.6663" stroke="#FF3B0E" stroke-width="2" stroke-linecap="round" stroke-linejoin="round"/>
<path d="M42.3335 42H55.6668" stroke="#FF3B0E" stroke-width="2" stroke-linecap="round" stroke-linejoin="round"/>
<path d="M32.1822 5.2998C37.7045 5.2998 41.9762 10.1409 41.2924 15.6189L40.9492 18.3593C40.3954 22.7818 36.6385 26.0993 32.1822 26.0993C27.7259 26.0993 23.9664 22.7818 23.4152 18.3593L23.072 15.6189C22.3882 10.1383 26.6599 5.2998 32.1822 5.2998Z" stroke="#FF3B0E" stroke-width="2" stroke-linecap="round" stroke-linejoin="round"/>
</svg>
