<svg width="122" height="32" viewBox="0 0 122 32" fill="none" xmlns="http://www.w3.org/2000/svg">
<path d="M30.6327 7.98143C30.6327 6.74134 29.6368 5.73604 28.4084 5.73604C27.1799 5.73604 26.1841 6.74134 26.1841 7.98143V18.055C26.1841 19.2951 27.1799 20.3004 28.4084 20.3004C29.6368 20.3004 30.6327 19.2951 30.6327 18.055V7.98143Z" fill="white"/>
<path d="M10.9945 13.7914C10.9945 12.5513 9.99866 11.546 8.77021 11.546C7.54175 11.546 6.5459 12.5513 6.5459 13.7914V23.865C6.5459 25.1051 7.54175 26.1103 8.77021 26.1103C9.99866 26.1103 10.9945 25.1051 10.9945 23.865V13.7914Z" fill="white"/>
<path d="M37.1791 13.7961C37.1791 12.556 36.1832 11.5507 34.9548 11.5507C33.7263 11.5507 32.7305 12.556 32.7305 13.7961V18.0537C32.7305 19.2938 33.7263 20.2991 34.9548 20.2991C36.1832 20.2991 37.1791 19.2938 37.1791 18.0537V13.7961Z" fill="white"/>
<path d="M4.44862 13.7961C4.44862 12.556 3.45276 11.5507 2.22431 11.5507C0.995858 11.5507 0 12.556 0 13.7961V18.0537C0 19.2938 0.995858 20.2991 2.22431 20.2991C3.45276 20.2991 4.44862 19.2938 4.44862 18.0537V13.7961Z" fill="white"/>
<path d="M24.0868 2.2453C24.0868 1.00521 23.0909 -8.39233e-05 21.8625 -8.39233e-05C20.634 -8.39233e-05 19.6382 1.00521 19.6382 2.2453V21.0918C19.6382 22.3319 20.634 23.3372 21.8625 23.3372C23.0909 23.3372 24.0868 22.3319 24.0868 21.0918V2.2453Z" fill="white"/>
<path d="M17.5409 10.908C17.5409 9.6679 16.545 8.6626 15.3166 8.6626C14.0881 8.6626 13.0923 9.6679 13.0923 10.908V29.7545C13.0923 30.9946 14.0881 31.9999 15.3166 31.9999C16.545 31.9999 17.5409 30.9946 17.5409 29.7545V10.908Z" fill="white"/>
<path d="M117.706 12.1757H120.798V25.9103H117.706V12.1757ZM117.288 7.79417C117.288 6.72687 118.18 5.8 119.266 5.8C120.353 5.8 121.272 6.72687 121.272 7.79417C121.272 8.91765 120.353 9.81644 119.266 9.81644C118.18 9.81644 117.288 8.91765 117.288 7.79417Z" fill="white"/>
<path d="M108.944 11.1084C108.944 7.70991 111.061 5.8 114.069 5.8C114.654 5.8 115.295 5.91234 115.741 6.10895L115.574 8.88957C115.323 8.80531 114.849 8.72104 114.515 8.72104C113.15 8.72104 112.036 9.676 112.036 11.2489V12.3443H115.601V15.3215H112.036V26.0788H108.944V15.3215H106.325V12.3443H108.944V11.1084Z" fill="white"/>
<path d="M99.2748 12.0633C103.258 12.0633 106.351 15.1528 106.351 19.2254C106.351 23.27 103.258 26.3595 99.2748 26.3595C95.2912 26.3595 92.2269 23.27 92.2269 19.2254C92.2269 15.1528 95.2912 12.0633 99.2748 12.0633ZM95.2355 19.2254C95.2355 21.5567 96.9905 23.3542 99.2748 23.3542C101.531 23.3542 103.342 21.5567 103.342 19.2254C103.342 16.8661 101.531 15.0405 99.2748 15.0405C96.9905 15.0405 95.2355 16.8661 95.2355 19.2254Z" fill="white"/>
<path d="M77.8371 6.58019H80.9293V14.6692C81.7929 13.1245 83.2136 12.2257 85.0244 12.2257C88.5344 12.2257 90.6795 14.585 90.6795 18.4048V26.2411H87.5873V18.798C87.5873 16.6353 86.278 15.231 84.2722 15.231C82.2665 15.231 80.9293 16.6353 80.9293 18.798V26.2411H77.8371V6.58019Z" fill="white"/>
<path d="M76.2892 22.5742C75.2585 24.8492 72.8627 26.3378 70.0212 26.3378C65.9819 26.3378 62.8897 23.2764 62.8897 19.2037C62.8897 15.1311 65.954 12.0416 69.9934 12.0416C72.6398 12.0416 74.8685 13.3616 75.8713 15.3839L73.2527 16.8725C72.6956 15.7771 71.4698 15.0469 69.9934 15.0469C67.6533 15.0469 65.954 16.8444 65.954 19.2037C65.954 21.535 67.6812 23.3325 70.0212 23.3325C71.6091 23.3325 72.9184 22.5742 73.5313 21.3103L76.2892 22.5742Z" fill="white"/>
<path d="M54.8512 26.3378C50.9233 26.3378 47.8032 23.2202 47.8032 19.1195C47.8032 15.1311 50.8676 12.0416 54.7955 12.0416C58.4727 12.0416 61.342 14.9064 61.342 18.5858C61.342 18.979 61.2863 19.5689 61.2306 19.9902H50.8397C51.174 22.2371 52.734 23.5853 54.9348 23.5853C56.4669 23.5853 57.8877 22.8831 58.5005 21.8158L60.952 23.3887C59.9491 25.2144 57.6369 26.3378 54.8512 26.3378ZM50.9233 17.6309H58.1662C57.9434 15.9737 56.5226 14.7379 54.6283 14.7379C52.7062 14.7379 51.369 15.8333 50.9233 17.6309Z" fill="white"/>
</svg>
